<?xml version="1.0" encoding="UTF-8"?>
<svg id="Layer_1" xmlns="http://www.w3.org/2000/svg" version="1.1" viewBox="0 0 251.4 251.4">
  <!-- Generator: Adobe Illustrator 29.1.0, SVG Export Plug-In . SVG Version: 2.1.0 Build 142)  -->
  <defs>
    <style>
      .st0 {
        fill: #fff;
      }

      .st1 {
        fill: #3e3a36;
      }
    </style>
  </defs>
  <path class="st1" d="M125.7,0C56.4,0,0,56.4,0,125.7s56.4,125.7,125.7,125.7,125.7-56.4,125.7-125.7S195,0,125.7,0Z"/>
  <g>
    <g>
      <path class="st0" d="M166.2,167.7c-3.8,0-6.9,3.1-6.9,6.9s3.1,6.9,6.9,6.9,6.9-3.1,6.9-6.9-3.1-6.9-6.9-6.9ZM166.2,180.6c-3.3,0-6-2.7-6-6s2.7-6,6-6,6,2.6,6,6-2.7,6-6,6Z"/>
      <path class="st0" d="M169.3,173.1c0-1.5-1.1-2.4-2.5-2.4h-3.2v8h1v-3.1h1.4l2.1,3.1h1.3l-2.1-3.2c.5,0,2-.6,2-2.4ZM164.6,174.5v-2.9h2.2c.8,0,1.4.6,1.4,1.5s-.7,1.4-1.4,1.4h-2.2Z"/>
    </g>
    <path class="st0" d="M129.7,147.2v34.4h11.4c2.2,0,4-1.8,4-4v-39c-8.5,0-15.5.1-15.5,8.7Z"/>
    <path class="st0" d="M151.5,69.5h-19.9c-1.1,0-1.9.9-1.9,1.9v47.8h-6.9s0-47.8,0-47.8c0-1.1-.9-1.9-1.9-1.9h-20.5c-12.5,0-21.6,8.5-21.6,21.6v15.3c0,9.4,2.8,13.3,8.2,16.6-5.4,3.7-8.7,9.9-8.7,17.9v19.1c0,13.1,9.1,21.6,21.6,21.6h22.9v-43c-8.5,0-15.5.1-15.5,8.7v18.9h0c0,.1-7.4.1-7.4.1-3.4,0-6.2-2.8-6.2-6.2v-14.7h0c0-6.9,3.2-10.7,9.3-10.7h0s48.5,0,48.5,0c12.5,0,21.6-8.5,21.6-21.6v-21.9c0-13.1-9.1-21.6-21.6-21.6ZM94.2,91.1c0-3.4,2.8-6.2,6.2-6.2h7v34.3h-1.7s-3,0-3,0c-6.3,0-8.4-3.4-8.5-10v-18s0-.1,0-.1ZM157.7,108.4c0,7.2-2,10.8-8.7,10.8h-.6,0s-3.3,0-3.3,0h0v-34.2h3.9c6.7,0,8.7,3.6,8.7,10.8v12.6Z"/>
  </g>
  <g>
    <g>
      <path class="st0" d="M33,155.6c-3.4.8-6.6-1.3-7.4-4.8-.8-3.6,1.3-6.8,4.7-7.5,3.4-.8,6.6,1.3,7.4,4.8.8,3.6-1.3,6.8-4.7,7.5Z"/>
      <path class="st0" d="M32.5,100.4h0c1.4-2.9,3.9-3.8,7-3.2,4.7.9,7.2,3.6,6,9.9l-1.9,9.5-26.5-5.2,1.6-8.4c1.1-5.9,4.6-7.7,8.5-6.9,2.9.6,4.6,1.8,5.1,4.4ZM29.2,108.1l.6-3.1c.4-2.3-.4-3.2-2.7-3.6-2.2-.4-3.1.2-3.6,2.4l-.6,3.1,6.2,1.2ZM40.2,110.2l.7-3.7c.4-2.2-.3-3.3-2.9-3.8-2.6-.5-3.6.2-4,2.5l-.7,3.7,6.9,1.3Z"/>
      <path class="st0" d="M43.9,66l7.5,4.3c5,2.9,6.6,7.7,3.5,13.1-3.1,5.4-8,6.5-13,3.6l-7.5-4.3c-5-2.9-6.6-7.7-3.5-13.1,3.1-5.4,8-6.5,13-3.6ZM41.1,71c-3-1.7-4.8-1.3-6.1,1-1.3,2.3-.7,4.1,2.2,5.8l7.5,4.3c3,1.7,4.9,1.4,6.2-.9,1.3-2.3.7-4.1-2.4-5.8l-7.5-4.3Z"/>
      <path class="st0" d="M61,35.6l11.9,13.4c3.9,4.4,3.6,9.3-.9,13.4-4.6,4-9.5,3.8-13.3-.5l-12.1-13.6,4.3-3.8,12.1,13.7c1.9,2.2,3.9,2,5.6.5,1.9-1.7,2.1-3.5.2-5.6l-12.1-13.7,4.3-3.8Z"/>
      <path class="st0" d="M80.6,24.5l9,20.1,8.5-3.8,2,4.6-13.5,6.1-11.1-24.6,5.1-2.3Z"/>
      <path class="st0" d="M114.1,15.1c6.1-.7,10,2.6,10.7,8.4l.9,7.8c.7,5.8-2.4,10-8.5,10.7l-9.5,1.1-3.1-26.8,9.5-1.1ZM114.7,19.9l-3.8.4,2,17.4,3.8-.4c2.7-.3,3.8-1.8,3.3-5.5l-.8-7.3c-.4-3.7-1.8-4.9-4.5-4.6Z"/>
      <path class="st0" d="M155.8,18.1l-.9,4.8-9.8-1.9-1.2,6,7.3,1.4-.8,4.2-7.3-1.4-1.3,6.7,10.1,2-.9,4.7-15.7-3.1,5.2-26.5,15.4,3Z"/>
      <path class="st0" d="M170.9,42.1l-2.2-1.2-5.1,9.3-5-2.7,12.9-23.7,7.8,4.3c5.3,2.9,6.1,6.9,3.8,11.1-1.7,3.1-4.3,4.8-7.2,4.3l-.7,13.1-5.4-3,1-11.5ZM170.8,37.2l2.7,1.5c2.2,1.2,3.4.3,4.6-1.9,1.3-2.4,1.1-3.6-1-4.7l-2.7-1.5-3.6,6.6Z"/>
      <path class="st0" d="M204,46.5l-18.6,19.6-4.1-3.9,18.6-19.6,4.1,3.9Z"/>
      <path class="st0" d="M217.3,62.4l-8.3,15.9h0c0,0,13.1-8,13.1-8l2.6,4.3-23,14.2-2.1-3.4,8.6-16.5h0c0,0-13.6,8.3-13.6,8.3l-2.6-4.3,23-14.2,2.2,3.6Z"/>
      <path class="st0" d="M229.7,110.1l-2.4-3.7c2-1.4,2.5-3,2.1-4.9-.7-3.1-2.7-4.2-6.3-3.3l-7.8,1.8c-3.3.7-4.4,2.7-3.8,5.4.4,1.6,1.1,2.6,2.7,3.2l3.8-.9-.7-2.9,3.6-.8,1.8,7.8-13.6,3.1-1-4.5,1.7-.4c-1.7-1.1-2.8-2.8-3.3-5-1.1-5,1.2-9.1,7.4-10.5l7.9-1.8c6-1.4,10.5.9,12,7.4,1,4.4-.6,8.3-4.1,10.1Z"/>
      <path class="st0" d="M222.9,142.7c3.4.7,5.5,3.9,4.8,7.4-.7,3.6-3.9,5.7-7.3,5-3.4-.7-5.5-3.9-4.8-7.4.7-3.6,3.9-5.7,7.3-5Z"/>
    </g>
    <g>
      <path class="st0" d="M62.7,193c-4.1,3.6-8.5,3.6-11.9-.3l-2.8-3.2-7,6.1-3.8-4.3,20.4-17.7,6.3,7.2c3.5,4,3,8.5-1.2,12.2ZM51.3,186.7l2.4,2.7c1.3,1.5,2.9,1.3,5.2-.7,2.3-2,2.7-3.4,1.3-5l-2.4-2.7-6.5,5.7Z"/>
      <path class="st0" d="M74,210.4l-2.1-1.3-5.5,9-4.9-3,14.1-23,7.6,4.7c5.2,3.2,5.8,7.1,3.2,11.3-1.9,3-4.5,4.5-7.4,4l-1.3,13-5.3-3.2,1.6-11.4ZM74.1,205.5l2.6,1.6c2.1,1.3,3.4.4,4.6-1.7,1.4-2.3,1.2-3.5-.8-4.7l-2.6-1.6-3.9,6.4Z"/>
      <path class="st0" d="M114.4,217.8l-2,8.4c-1.4,5.6-5.5,8.5-11.6,7-6-1.4-8.5-5.9-7.1-11.5l2-8.4c1.4-5.6,5.5-8.5,11.6-7,6,1.4,8.5,5.9,7.1,11.5ZM108.8,216.4c.8-3.3,0-4.9-2.6-5.6-2.6-.6-4.1.4-4.9,3.8l-2,8.4c-.8,3.4,0,5.1,2.6,5.7,2.6.6,4.1-.5,4.9-3.9l2-8.4Z"/>
      <path class="st0" d="M131.8,208.9l.4,22.1c.1,6.4-3.3,10-10.1,10.2l-.5-4.5c3.4,0,4.9-1.5,4.9-5.6l-.4-22.2h5.7Z"/>
      <path class="st0" d="M156.4,204.2l1.2,4.8-9.6,2.5,1.5,5.9,7.2-1.9,1.1,4.2-7.2,1.9,1.7,6.6,10-2.6,1.2,4.7-15.5,4-6.8-26.1,15.2-3.9Z"/>
      <path class="st0" d="M181.5,197.2l-2.8,3.5c-1.4-1.4-3-1.7-4.7-.7-2.1,1.3-2.3,3.3-.8,5.8l5,8.3c1.4,2.3,3.2,3.1,5.3,1.8,1.7-1,2.1-2.4,1.4-4.6l4.3-1c1.4,4.1,0,7.4-3.8,9.7-4.7,2.8-9.4,1.7-12.2-2.9l-5-8.3c-3-4.9-1.8-9.7,2.8-12.6,3.6-2.2,7.8-1.5,10.3,1.1Z"/>
      <path class="st0" d="M195.9,174.4l3.7,3.3-4,4.5,16.3,14.8-3.8,4.2-16.3-14.8-4,4.5-3.7-3.3,11.9-13.2Z"/>
    </g>
  </g>
</svg>